<svg width="118" height="118" viewBox="0 0 118 118" fill="none" xmlns="http://www.w3.org/2000/svg">
<circle cx="59" cy="59" r="59" fill="#C9CBF2"/>
<path d="M52.0002 43.8957C51.7897 43.7203 51.5466 43.5881 51.285 43.5067C51.0233 43.4254 50.7481 43.3965 50.4753 43.4216C50.2024 43.4468 49.9372 43.5255 49.6948 43.6534C49.4524 43.7812 49.2376 43.9556 49.0627 44.1665L38.6461 56.6665C38.3396 57.0393 38.1721 57.5069 38.1721 57.9894C38.1721 58.472 38.3396 58.9396 38.6461 59.3123L48.7086 71.8123C48.9046 72.0541 49.1524 72.2488 49.4336 72.3822C49.7148 72.5155 50.0223 72.5842 50.3336 72.5832C50.7278 72.5845 51.1143 72.474 51.4482 72.2644C51.7821 72.0548 52.0497 71.7548 52.2199 71.3991C52.3901 71.0435 52.4559 70.6469 52.4096 70.2554C52.3633 69.8639 52.2069 69.4935 51.9586 69.1873L42.9377 57.9998L52.2711 46.8332C52.4465 46.6227 52.5786 46.3796 52.66 46.1179C52.7413 45.8563 52.7702 45.5811 52.7451 45.3082C52.7199 45.0354 52.6412 44.7701 52.5134 44.5278C52.3856 44.2854 52.2112 44.0706 52.0002 43.8957Z" fill="#231F20"/>
<path d="M79.3753 56.6874L69.4169 44.1874C69.245 43.9734 69.0325 43.7955 68.7916 43.6639C68.5507 43.5322 68.2861 43.4495 68.0131 43.4205C67.7402 43.3915 67.4641 43.4167 67.2009 43.4946C66.9377 43.5726 66.6925 43.7019 66.4794 43.8749C66.2654 44.0468 66.0875 44.2594 65.9559 44.5003C65.8243 44.7412 65.7415 45.0057 65.7125 45.2787C65.6835 45.5517 65.7087 45.8277 65.7866 46.0909C65.8646 46.3541 65.9939 46.5993 66.1669 46.8124L75.0627 57.9999L65.7294 69.1874C65.554 69.3979 65.4218 69.641 65.3405 69.9027C65.2591 70.1643 65.2302 70.4395 65.2554 70.7123C65.2805 70.9852 65.3593 71.2504 65.4871 71.4928C65.6149 71.7352 65.7893 71.95 66.0002 72.1249C66.3779 72.428 66.8494 72.5901 67.3336 72.5832C67.6396 72.5837 67.9421 72.5168 68.2193 72.3872C68.4966 72.2575 68.7419 72.0684 68.9378 71.8332L79.3544 59.3332C79.6638 58.9629 79.835 58.4966 79.8388 58.0141C79.8426 57.5315 79.6787 57.0626 79.3753 56.6874Z" fill="#231F20"/>
</svg>
