<svg width="18" height="18" viewBox="0 0 18 18" fill="none" xmlns="http://www.w3.org/2000/svg">
<path d="M9 0C4.02942 0 0 4.02942 0 9C0 13.9706 4.02942 18 9 18C13.9706 18 18 13.9706 18 9C18 4.02942 13.9706 0 9 0ZM9 16.2581C4.98876 16.2581 1.74194 13.0119 1.74194 9C1.74194 4.98879 4.98814 1.74194 9 1.74194C13.0112 1.74194 16.2581 4.98814 16.2581 9C16.2581 13.0112 13.0119 16.2581 9 16.2581ZM12.8958 12.5904C12.5469 12.9429 11.2435 14.0927 9.11925 14.0927C6.12784 14.0927 4.02104 11.8636 4.02104 8.95518C4.02104 6.08273 6.20844 3.89627 9.09305 3.89627C11.1083 3.89627 12.3134 4.86232 12.6347 5.15842C12.7102 5.22786 12.7587 5.3218 12.7716 5.42358C12.7844 5.52536 12.7608 5.62841 12.705 5.71446L12.0461 6.73469C11.9067 6.95061 11.6119 6.99895 11.4111 6.84069C11.0992 6.59479 10.2566 6.02278 9.17169 6.02278C7.41876 6.02278 6.34409 7.30492 6.34409 8.92898C6.34409 10.4383 7.31987 11.9662 9.18479 11.9662C10.3699 11.9662 11.2476 11.2753 11.57 10.9782C11.7613 10.8019 12.0634 10.8316 12.2167 11.0413L12.9376 12.0273C12.9991 12.1107 13.0286 12.2133 13.021 12.3166C13.0133 12.4199 12.9689 12.517 12.8958 12.5904Z" fill="white"/>
</svg>
