<svg width="22" height="29" viewBox="0 0 22 29" fill="none" xmlns="http://www.w3.org/2000/svg">
<path d="M9.75736 28.4149C1.5276 16.4842 0 15.2597 0 10.875C0 4.86888 4.86888 0 10.875 0C16.8811 0 21.75 4.86888 21.75 10.875C21.75 15.2597 20.2224 16.4842 11.9926 28.4149C11.4526 29.1951 10.2974 29.195 9.75736 28.4149ZM10.875 15.4062C13.3775 15.4062 15.4062 13.3775 15.4062 10.875C15.4062 8.37245 13.3775 6.34375 10.875 6.34375C8.37245 6.34375 6.34375 8.37245 6.34375 10.875C6.34375 13.3775 8.37245 15.4062 10.875 15.4062Z" fill="white"/>
</svg>
