<svg width="50" height="80" viewBox="0 0 50 80" fill="none" xmlns="http://www.w3.org/2000/svg">
<path d="M48.5 1.5L15 12.5L20.5 16C13.351 23.243 9.64351 27.3903 5.5 35.5C5.62192 41.6539 6.237 44.6136 10 47.5C16.8562 48.5679 19.7127 47.5254 23.5 43.5C15.9343 44.9848 13.4261 44.7805 13 42C15.7602 32.2801 19.9277 28.1215 30 22L35 29L48.5 1.5Z" fill="white"/>
<path d="M35 32.5C27.2919 32.1324 23.274 33.9874 16.5 40C25.3655 38.7207 28.4608 38.7568 31 40C31.3129 43.512 31.0068 44.6827 30 46C21.1999 57.1435 14.9349 62.1487 1 68.5L3 78.5C12.7737 74.6614 18.1495 71.6793 27.5 64.5C34.6134 59.6358 37.1396 55.0985 42.5 43.5C40.9208 36.7272 40.2629 34.0298 35 32.5Z" fill="white"/>
<path d="M48.5 1.5L15 12.5L20.5 16C13.351 23.243 9.64351 27.3903 5.5 35.5C5.62192 41.6539 6.237 44.6136 10 47.5C16.8562 48.5679 19.7127 47.5254 23.5 43.5C15.9343 44.9848 13.4261 44.7805 13 42C15.7602 32.2801 19.9277 28.1215 30 22L35 29L48.5 1.5Z" stroke="white"/>
<path d="M35 32.5C27.2919 32.1324 23.274 33.9874 16.5 40C25.3655 38.7207 28.4608 38.7568 31 40C31.3129 43.512 31.0068 44.6827 30 46C21.1999 57.1435 14.9349 62.1487 1 68.5L3 78.5C12.7737 74.6614 18.1495 71.6793 27.5 64.5C34.6134 59.6358 37.1396 55.0985 42.5 43.5C40.9208 36.7272 40.2629 34.0298 35 32.5Z" stroke="white"/>
</svg>
