<svg width="27" height="18" viewBox="0 0 27 18" fill="none" xmlns="http://www.w3.org/2000/svg">
<path d="M26.4885 5.77865C26.6941 5.63737 27 5.76953 27 5.99284V15.3125C27 16.5202 25.8662 17.5 24.4688 17.5H2.53125C1.13379 17.5 0 16.5202 0 15.3125V5.9974C0 5.76953 0.300586 5.64193 0.511523 5.7832C1.69277 6.57617 3.25898 7.58333 8.63789 10.9603C9.75059 11.6621 11.6279 13.1387 13.5 13.1296C15.3826 13.1432 17.2969 11.6348 18.3674 10.9603C23.7463 7.58333 25.3072 6.57162 26.4885 5.77865ZM13.5 11.6667C14.7234 11.6849 16.4848 10.3359 17.3707 9.77995C24.3686 5.39128 24.9012 5.00846 26.5148 3.91471C26.8207 3.70964 27 3.39063 27 3.05339V2.1875C27 0.979818 25.8662 0 24.4688 0H2.53125C1.13379 0 0 0.979818 0 2.1875V3.05339C0 3.39063 0.179297 3.70508 0.485156 3.91471C2.09883 5.00391 2.63145 5.39128 9.6293 9.77995C10.5152 10.3359 12.2766 11.6849 13.5 11.6667Z" fill="white"/>
</svg>
