<svg width="118" height="118" viewBox="0 0 118 118" fill="none" xmlns="http://www.w3.org/2000/svg">
<circle cx="59" cy="59" r="59" fill="#C9CBF2"/>
<path d="M69.9375 34H48.0625C45.4844 34 43.375 36.1094 43.375 38.6875V79.3125C43.375 81.8906 45.4844 84 48.0625 84H69.9375C72.5156 84 74.625 81.8906 74.625 79.3125V38.6875C74.625 36.1094 72.5156 34 69.9375 34ZM59 80.875C57.2719 80.875 55.875 79.4781 55.875 77.75C55.875 76.0219 57.2719 74.625 59 74.625C60.7281 74.625 62.125 76.0219 62.125 77.75C62.125 79.4781 60.7281 80.875 59 80.875ZM71.5 71.5H46.5V40.25H71.5V71.5Z" fill="black"/>
</svg>
