<svg width="21" height="22" viewBox="0 0 21 22" fill="none" xmlns="http://www.w3.org/2000/svg">
<path d="M20.4011 15.546L15.8073 13.4834C15.611 13.3958 15.3929 13.3774 15.1858 13.4308C14.9787 13.4843 14.7937 13.6068 14.6588 13.7799L12.6244 16.3839C9.4316 14.8068 6.86212 12.115 5.35673 8.77012L7.84232 6.63883C8.0079 6.49775 8.12509 6.304 8.17615 6.08691C8.22722 5.86982 8.20938 5.6412 8.12534 5.43568L6.15655 0.623098C6.06431 0.401551 5.90117 0.220665 5.69526 0.111631C5.48935 0.00259757 5.25358 -0.0277499 5.0286 0.0258218L0.762904 1.05709C0.545997 1.10956 0.352472 1.23751 0.213915 1.42005C0.0753574 1.60258 -4.99665e-05 1.82893 2.48403e-08 2.06215C2.48403e-08 13.0838 8.5273 22 19.0316 22C19.2543 22.0001 19.4704 21.9212 19.6447 21.776C19.8191 21.6309 19.9413 21.4281 19.9914 21.2008L20.9758 16.7319C21.0266 16.4951 20.997 16.2471 20.8921 16.0307C20.7872 15.8142 20.6136 15.6428 20.4011 15.546Z" fill="white"/>
</svg>
