<svg width="118" height="118" viewBox="0 0 118 118" fill="none" xmlns="http://www.w3.org/2000/svg">
<circle cx="59" cy="59" r="59" fill="#C9CBF2"/>
<path d="M50.3112 64.2084C46.3933 64.4603 42.8377 65.9525 40.8202 71.2688C40.5907 71.8752 40.0389 72.2434 39.3954 72.2434C38.3105 72.2434 34.956 69.5413 34 68.889C34.001 76.9308 37.705 83.999 46.5007 83.999C53.9088 83.999 59.0005 79.7247 59.0005 72.2619C59.0005 71.9582 58.937 71.6682 58.9058 71.3704L50.3112 64.2084ZM78.7159 34C77.2355 34 75.8478 34.6553 74.7892 35.6064C54.8277 53.4381 52.7506 53.857 52.7506 59.106C52.7506 60.4438 53.068 61.7192 53.6031 62.8852L59.8354 68.0784C60.5395 68.2542 61.2651 68.3743 62.0219 68.3743C68.0872 68.3743 71.6028 63.934 82.6426 43.3299C83.3633 41.9286 84 40.4149 84 38.8388C84 36.0156 81.461 34 78.7159 34Z" fill="#2A247A"/>
</svg>
